<?xml version="1.0" standalone="no"?>
<!DOCTYPE svg PUBLIC "-//W3C//DTD SVG 20010904//EN"
 "http://www.w3.org/TR/2001/REC-SVG-20010904/DTD/svg10.dtd">
<svg version="1.0" xmlns="http://www.w3.org/2000/svg"
 width="36.000000pt" height="28.000000pt" viewBox="0 0 36.000000 28.000000"
 preserveAspectRatio="xMidYMid meet">

<g transform="translate(0.000000,28.000000) scale(0.100000,-0.100000)"
fill="#000000" stroke="none">
<path d="M40 220 c0 -19 7 -20 140 -20 133 0 140 1 140 20 0 19 -7 20 -140 20
-133 0 -140 -1 -140 -20z"/>
<path d="M40 140 c0 -19 7 -20 140 -20 133 0 140 1 140 20 0 19 -7 20 -140 20
-133 0 -140 -1 -140 -20z"/>
<path d="M40 60 c0 -19 7 -20 140 -20 133 0 140 1 140 20 0 19 -7 20 -140 20
-133 0 -140 -1 -140 -20z"/>
</g>
</svg>
